<svg width="31" height="20" viewBox="0 0 31 20" fill="none" xmlns="http://www.w3.org/2000/svg">
<path d="M29.3278 14.6374V10.3833C29.3276 10.3381 29.3187 10.2933 29.3015 10.2515L27.3459 5.5874C27.115 5.03402 26.7253 4.56148 26.2261 4.22945C25.7268 3.89742 25.1403 3.7208 24.5407 3.7219H11.6325V3.2119H25.0801C25.1408 3.2104 25.1999 3.19235 25.251 3.1597C25.2628 3.15275 25.2741 3.14507 25.2849 3.1367C25.3331 3.10174 25.3711 3.05454 25.3949 3L25.3965 2.9981L25.3973 2.9881C25.4121 2.95093 25.4201 2.9114 25.4209 2.8714C25.4188 2.8549 25.4155 2.83858 25.4109 2.8226C25.409 2.80826 25.4061 2.79406 25.4023 2.7801C25.3877 2.72251 25.3581 2.66983 25.3164 2.6275L25.3147 2.6243C24.4438 1.79186 23.2848 1.32831 22.0801 1.3306H11.6325V0.3413C11.6325 0.250782 11.5965 0.16397 11.5325 0.0999641C11.4685 0.035958 11.3817 0 11.2912 0C11.2007 0 11.1139 0.035958 11.0499 0.0999641C10.9859 0.16397 10.9499 0.250782 10.9499 0.3413V1.3306H9.4665V0.3413C9.4665 0.250782 9.43054 0.16397 9.36653 0.0999641C9.30253 0.035958 9.21572 0 9.1252 0C9.03468 0 8.94787 0.035958 8.88386 0.0999641C8.81986 0.16397 8.7839 0.250782 8.7839 0.3413V1.3306H5.4021C4.19726 1.32823 3.03809 1.79145 2.1667 2.6235L2.165 2.6267C2.12351 2.66895 2.09395 2.72143 2.0793 2.7788C2.07538 2.79291 2.07248 2.80728 2.0706 2.8218C2.066 2.83778 2.06266 2.8541 2.0606 2.8706C2.06151 2.91043 2.0695 2.94977 2.0842 2.9868L2.0851 2.9976L2.0868 2.9995C2.11066 3.05404 2.14863 3.10122 2.1968 3.1362C2.20767 3.14457 2.21906 3.15225 2.2309 3.1592C2.28206 3.19211 2.34128 3.21034 2.4021 3.2119H8.7839V3.7219H5.7321C4.47138 3.72314 3.26265 4.22448 2.37114 5.11589C1.47964 6.00731 0.978175 7.21598 0.976798 8.4767V14.6545C0.643653 14.7839 0.366259 15.0257 0.192688 15.3381C0.019117 15.6505 -0.0396919 16.0137 0.0264522 16.3649C0.0925964 16.7161 0.279525 17.0331 0.554845 17.261C0.830164 17.4888 1.17652 17.6132 1.5339 17.6125H3.2707C3.61762 17.6119 3.95408 17.4937 4.22514 17.2772C4.49621 17.0606 4.68585 16.7586 4.7631 16.4204H5.3801C5.46002 17.1893 5.82206 17.9014 6.39628 18.419C6.9705 18.9367 7.71616 19.2231 8.48925 19.2231C9.26234 19.2231 10.008 18.9367 10.5822 18.419C11.1564 17.9014 11.5185 17.1893 11.5984 16.4204H18.7556C18.8356 17.1893 19.1977 17.9013 19.772 18.4189C20.3463 18.9365 21.0919 19.2229 21.865 19.2229C22.6381 19.2229 23.3837 18.9365 23.958 18.4189C24.5322 17.9013 24.8944 17.1893 24.9744 16.4204H25.5974C25.6746 16.7587 25.8643 17.0608 26.1354 17.2774C26.4065 17.494 26.7431 17.6122 27.0901 17.6128H28.8269C29.1892 17.6139 29.5401 17.4863 29.817 17.2527C30.094 17.0192 30.2791 16.695 30.3393 16.3377C30.3995 15.9805 30.3309 15.6135 30.1458 15.3021C29.9606 14.9907 29.6704 14.7551 29.3278 14.6374ZM11.6325 2.0119H22.0801C22.7711 2.01062 23.4505 2.18899 24.0518 2.5295H11.6325V2.0119ZM9.4665 2.0119H10.9501V2.5295H9.4665V2.0119ZM9.4665 3.2111H10.9501V3.7219H9.4665V3.2111ZM3.4301 2.5298C4.03142 2.18913 4.71098 2.01066 5.4021 2.0119H8.7839V2.5295L3.4301 2.5298ZM1.6591 8.477C1.66024 7.3971 2.08971 6.36176 2.8533 5.59814C3.61688 4.83452 4.6522 4.40499 5.7321 4.4038H24.5407C25.0057 4.40312 25.4605 4.54022 25.8477 4.79781C26.2348 5.0554 26.537 5.42192 26.716 5.8511L28.6452 10.4519V10.4743H1.6594L1.6591 8.477ZM28.6449 11.7004V12.8765C28.539 12.8191 28.4506 12.7341 28.3889 12.6306C28.3273 12.5271 28.2948 12.4089 28.2948 12.2885C28.2948 12.168 28.3273 12.0498 28.3889 11.9463C28.4506 11.8428 28.539 11.7578 28.6449 11.7004ZM3.2707 16.9311H1.5339C1.30965 16.9287 1.09541 16.8379 0.9377 16.6785C0.779986 16.519 0.691526 16.3038 0.691526 16.0795C0.691526 15.8553 0.779986 15.6401 0.9377 15.4806C1.09541 15.3212 1.30965 15.2304 1.5339 15.228H3.2707C3.49494 15.2304 3.70918 15.3212 3.8669 15.4806C4.02461 15.6401 4.11307 15.8553 4.11307 16.0795C4.11307 16.3038 4.02461 16.519 3.8669 16.6785C3.70918 16.8379 3.49494 16.9287 3.2707 16.9311ZM8.489 18.5411C8.00203 18.5413 7.52595 18.397 7.12098 18.1266C6.71601 17.8561 6.40034 17.4717 6.21389 17.0218C6.02744 16.5719 5.9786 16.0769 6.07353 15.5993C6.16847 15.1216 6.40292 14.6829 6.74723 14.3385C7.09154 13.9941 7.53025 13.7596 8.00786 13.6646C8.48547 13.5696 8.98053 13.6184 9.43042 13.8047C9.88031 13.9911 10.2648 14.3067 10.5353 14.7116C10.8058 15.1166 10.9502 15.5926 10.9501 16.0796C10.9496 16.7323 10.6901 17.3581 10.2287 17.8197C9.76735 18.2813 9.14167 18.5403 8.489 18.5411ZM21.8645 18.5411C21.3776 18.5412 20.9015 18.3969 20.4966 18.1264C20.0917 17.856 19.7761 17.4715 19.5896 17.0217C19.4032 16.5718 19.3544 16.0768 19.4493 15.5992C19.5443 15.1216 19.7787 14.6829 20.123 14.3386C20.4673 13.9942 20.9059 13.7597 21.3835 13.6646C21.8611 13.5696 22.3561 13.6183 22.806 13.8047C23.2559 13.991 23.6404 14.3065 23.911 14.7114C24.1815 15.1163 24.3259 15.5923 24.3259 16.0792C24.3255 16.732 24.0661 17.3579 23.6046 17.8197C23.1431 18.2814 22.5173 18.5403 21.8645 18.5411ZM25.5971 15.7384H24.9741C24.8941 14.9695 24.5319 14.2575 23.9577 13.7399C23.3834 13.2223 22.6378 12.9359 21.8647 12.9359C21.0916 12.9359 20.346 13.2223 19.7717 13.7399C19.1974 14.2575 18.8353 14.9695 18.7553 15.7384H11.5981C11.5182 14.9695 11.1561 14.2574 10.5819 13.7398C10.0077 13.2221 9.26204 12.9357 8.48895 12.9357C7.71586 12.9357 6.9702 13.2221 6.39598 13.7398C5.82176 14.2574 5.45972 14.9695 5.3798 15.7384H4.7631C4.68592 15.4001 4.49631 15.098 4.22524 14.8814C3.95417 14.6649 3.61766 14.5466 3.2707 14.546H1.6594V11.1558H28.2119C27.9937 11.304 27.823 11.512 27.7204 11.7549C27.6177 11.9979 27.5874 12.2653 27.6332 12.525C27.679 12.7847 27.7989 13.0257 27.9784 13.2188C28.158 13.412 28.3895 13.5492 28.6452 13.6138V14.5464H27.0901C26.743 14.5469 26.4064 14.6651 26.1352 14.8817C25.864 15.0983 25.6743 15.4 25.5971 15.7384ZM28.8264 16.9307H27.0901C26.8659 16.9283 26.6516 16.8375 26.4939 16.6781C26.3362 16.5186 26.2477 16.3034 26.2477 16.0792C26.2477 15.8549 26.3362 15.6397 26.4939 15.4802C26.6516 15.3208 26.8659 15.23 27.0901 15.2276H28.8269C29.0511 15.23 29.2654 15.3208 29.4231 15.4802C29.5808 15.6397 29.6693 15.8549 29.6693 16.0792C29.6693 16.3034 29.5808 16.5186 29.4231 16.6781C29.2654 16.8375 29.0506 16.9283 28.8264 16.9307Z" fill="black"/>
<path d="M8.66132 5.18599H5.67742C4.80073 5.1867 3.96013 5.53519 3.34009 6.15497C2.72004 6.77475 2.3712 7.6152 2.37012 8.49189V9.43189C2.37013 9.47668 2.37897 9.52103 2.39613 9.56241C2.4133 9.60378 2.43844 9.64137 2.47014 9.67302C2.50184 9.70467 2.53946 9.72976 2.58086 9.74687C2.62226 9.76397 2.66662 9.77274 2.71142 9.77269H8.66142C8.70621 9.77274 8.75057 9.76397 8.79197 9.74687C8.83337 9.72976 8.871 9.70467 8.90269 9.67302C8.93439 9.64137 8.95954 9.60378 8.9767 9.56241C8.99386 9.52103 9.0027 9.47668 9.00272 9.43189V5.52679C9.0027 5.48199 8.99386 5.43763 8.97669 5.39625C8.95952 5.35487 8.93437 5.31728 8.90266 5.28562C8.87095 5.25397 8.83331 5.22888 8.7919 5.21179C8.75049 5.19469 8.70612 5.18592 8.66132 5.18599ZM8.32012 9.09129H3.05292V8.49129C3.05387 7.79557 3.3307 7.12862 3.8227 6.63672C4.3147 6.14481 4.98169 5.86811 5.67742 5.86729H8.32012V9.09129Z" fill="black"/>
<path d="M18.811 5.18599H10.2344C10.1896 5.18594 10.1452 5.19471 10.1038 5.21182C10.0624 5.22892 10.0248 5.25401 9.99309 5.28566C9.96139 5.31731 9.93625 5.3549 9.91908 5.39627C9.90192 5.43765 9.89308 5.482 9.89307 5.52679V9.43189C9.89308 9.47668 9.90192 9.52103 9.91908 9.56241C9.93625 9.60378 9.96139 9.64137 9.99309 9.67302C10.0248 9.70467 10.0624 9.72976 10.1038 9.74687C10.1452 9.76397 10.1896 9.77274 10.2344 9.77269H18.811C18.8558 9.77274 18.9001 9.76397 18.9415 9.74687C18.9829 9.72977 19.0206 9.70467 19.0523 9.67303C19.084 9.64138 19.1091 9.60379 19.1263 9.56242C19.1435 9.52104 19.1523 9.47669 19.1524 9.43189V5.52679C19.1523 5.48199 19.1435 5.43764 19.1263 5.39626C19.1091 5.35489 19.084 5.3173 19.0523 5.28565C19.0206 5.25401 18.9829 5.22891 18.9415 5.21181C18.9001 5.19471 18.8558 5.18594 18.811 5.18599ZM18.4697 9.09129H10.5757V5.86769H18.4697V9.09129Z" fill="black"/>
<path d="M26.0233 6.36859C25.8692 6.01683 25.616 5.71762 25.2945 5.50758C24.973 5.29754 24.5973 5.18578 24.2133 5.18599H20.3833C20.3385 5.18594 20.2941 5.19471 20.2527 5.21182C20.2113 5.22892 20.1737 5.25401 20.142 5.28566C20.1103 5.31731 20.0852 5.3549 20.068 5.39627C20.0508 5.43765 20.042 5.482 20.042 5.52679V9.47509C20.042 9.51988 20.0508 9.56423 20.068 9.60561C20.0852 9.64698 20.1103 9.68457 20.142 9.71622C20.1737 9.74787 20.2113 9.77296 20.2527 9.79007C20.2941 9.80717 20.3385 9.81594 20.3833 9.81589H26.9609C27.0172 9.8159 27.0726 9.80198 27.1222 9.77538C27.1718 9.74878 27.214 9.71033 27.2452 9.66344C27.2763 9.61656 27.2954 9.5627 27.3006 9.50666C27.3059 9.45063 27.2972 9.39416 27.2754 9.34229L26.0233 6.36859ZM23.872 9.13429H20.7245V5.86769H23.872V9.13429ZM24.5546 9.13429V5.91359C24.7401 5.96396 24.9119 6.05518 25.0576 6.18055C25.2032 6.30593 25.319 6.46229 25.3964 6.63819L26.4472 9.13429H24.5546Z" fill="black"/>
<path d="M8.48924 14.5464C8.18603 14.5465 7.88965 14.6365 7.63758 14.805C7.38551 14.9736 7.18908 15.213 7.07311 15.4932C6.95714 15.7734 6.92685 16.0816 6.98606 16.379C7.04528 16.6764 7.19134 16.9495 7.40578 17.1639C7.62023 17.3783 7.89342 17.5242 8.19082 17.5834C8.48821 17.6425 8.79646 17.6121 9.07659 17.496C9.35672 17.38 9.59614 17.1835 9.76459 16.9313C9.93304 16.6792 10.0229 16.3828 10.0229 16.0796C10.0225 15.673 9.86071 15.2832 9.57318 14.9958C9.28564 14.7084 8.89581 14.5467 8.48924 14.5464ZM8.48924 16.9311C8.32078 16.9312 8.15607 16.8814 8.01595 16.7879C7.87582 16.6943 7.76657 16.5614 7.70203 16.4058C7.63749 16.2502 7.62054 16.0789 7.65334 15.9137C7.68614 15.7484 7.76721 15.5966 7.88629 15.4775C8.00538 15.3583 8.15713 15.2772 8.32234 15.2443C8.48756 15.2114 8.65882 15.2282 8.81447 15.2927C8.97011 15.3571 9.10314 15.4663 9.19673 15.6064C9.29032 15.7464 9.34026 15.9111 9.34024 16.0796C9.34008 16.3053 9.25039 16.5217 9.09085 16.6813C8.9313 16.841 8.71494 16.9308 8.48924 16.9311Z" fill="black"/>
<path d="M21.8648 14.5464C21.5616 14.5466 21.2653 14.6366 21.0133 14.8052C20.7613 14.9738 20.5649 15.2133 20.449 15.4935C20.3331 15.7737 20.3028 16.0819 20.3621 16.3793C20.4214 16.6766 20.5674 16.9497 20.7819 17.164C20.9964 17.3784 21.2696 17.5243 21.5669 17.5834C21.8643 17.6425 22.1726 17.6121 22.4527 17.496C22.7328 17.3799 22.9722 17.1834 23.1406 16.9313C23.309 16.6792 23.3989 16.3828 23.3989 16.0796C23.3984 15.6729 23.2366 15.2831 22.949 14.9957C22.6614 14.7082 22.2715 14.5466 21.8648 14.5464ZM21.8648 16.9311C21.6964 16.9311 21.5317 16.8812 21.3917 16.7876C21.2516 16.694 21.1424 16.561 21.078 16.4054C21.0135 16.2498 20.9966 16.0786 21.0295 15.9134C21.0623 15.7482 21.1434 15.5964 21.2625 15.4773C21.3817 15.3582 21.5334 15.2771 21.6986 15.2442C21.8638 15.2114 22.035 15.2283 22.1907 15.2927C22.3463 15.3572 22.4793 15.4664 22.5728 15.6064C22.6664 15.7465 22.7163 15.9111 22.7163 16.0796C22.7162 16.3054 22.6264 16.5219 22.4667 16.6815C22.3071 16.8412 22.0906 16.9309 21.8648 16.9311Z" fill="black"/>
<path d="M23.0572 11.6645H20.3829C20.3376 11.6637 20.2927 11.672 20.2506 11.6887C20.2086 11.7055 20.1703 11.7305 20.1381 11.7622C20.1058 11.794 20.0801 11.8318 20.0626 11.8735C20.0451 11.9153 20.0361 11.9601 20.0361 12.0053C20.0361 12.0506 20.0451 12.0954 20.0626 12.1371C20.0801 12.1789 20.1058 12.2167 20.1381 12.2485C20.1703 12.2802 20.2086 12.3052 20.2506 12.3219C20.2927 12.3387 20.3376 12.347 20.3829 12.3462H23.0572C23.1024 12.347 23.1474 12.3387 23.1894 12.3219C23.2314 12.3052 23.2697 12.2802 23.302 12.2485C23.3343 12.2167 23.3599 12.1789 23.3774 12.1371C23.3949 12.0954 23.4039 12.0506 23.4039 12.0053C23.4039 11.9601 23.3949 11.9153 23.3774 11.8735C23.3599 11.8318 23.3343 11.794 23.302 11.7622C23.2697 11.7305 23.2314 11.7055 23.1894 11.6887C23.1474 11.672 23.1024 11.6637 23.0572 11.6645Z" fill="black"/>
<path d="M18.6559 11.6645H15.9815C15.9363 11.6637 15.8913 11.672 15.8493 11.6887C15.8072 11.7055 15.769 11.7305 15.7367 11.7622C15.7044 11.794 15.6788 11.8318 15.6613 11.8735C15.6438 11.9153 15.6348 11.9601 15.6348 12.0053C15.6348 12.0506 15.6438 12.0954 15.6613 12.1371C15.6788 12.1789 15.7044 12.2167 15.7367 12.2485C15.769 12.2802 15.8072 12.3052 15.8493 12.3219C15.8913 12.3387 15.9363 12.347 15.9815 12.3462H18.6559C18.7012 12.347 18.7461 12.3387 18.7881 12.3219C18.8302 12.3052 18.8684 12.2802 18.9007 12.2485C18.933 12.2167 18.9586 12.1789 18.9761 12.1371C18.9936 12.0954 19.0026 12.0506 19.0026 12.0053C19.0026 11.9601 18.9936 11.9153 18.9761 11.8735C18.9586 11.8318 18.933 11.794 18.9007 11.7622C18.8684 11.7305 18.8302 11.7055 18.7881 11.6887C18.7461 11.672 18.7012 11.6637 18.6559 11.6645Z" fill="black"/>
</svg>
